<?xml version="1.0" encoding="UTF-8"?>
<svg version="1.1" xmlns="http://www.w3.org/2000/svg" width="2000" height="1387">
<path d="M0 0 C0.86849586 -0.00205263 1.73699171 -0.00410527 2.63180563 -0.0062201 C5.52624425 -0.01185008 8.42063469 -0.01043783 11.31507778 -0.00901413 C13.41778936 -0.01160009 15.52050044 -0.01461389 17.62321085 -0.01801753 C23.38996025 -0.02606411 29.15669719 -0.0278758 34.92345154 -0.028615 C41.14808269 -0.03046971 47.37270743 -0.03801929 53.59733486 -0.04475021 C67.91480725 -0.05902612 82.23227555 -0.06485868 96.54975354 -0.06944216 C103.63414296 -0.07178179 110.71853156 -0.07538491 117.80292034 -0.07913754 C142.08154646 -0.09197226 166.36017214 -0.10269001 190.63880157 -0.10614014 C192.16180834 -0.10636176 193.68481511 -0.10658355 195.20782187 -0.10680549 C196.73439347 -0.10702612 198.26096508 -0.10724661 199.78753668 -0.10746694 C202.84981255 -0.10790947 205.91208841 -0.10835659 208.97436428 -0.10880661 C209.7336259 -0.108916 210.49288752 -0.10902539 211.27515707 -0.1091381 C235.86652213 -0.11276468 260.45785764 -0.12867006 285.04921139 -0.15199697 C311.08376879 -0.17664744 337.11830931 -0.19031545 363.1528787 -0.19150805 C366.01642828 -0.19167949 368.87997784 -0.19189491 371.74352741 -0.19214249 C372.80106111 -0.19222614 372.80106111 -0.19222614 373.87995913 -0.19231148 C385.17939701 -0.19345759 396.47880434 -0.20444218 407.77823194 -0.21902954 C419.15876478 -0.23346633 430.53924798 -0.2363409 441.91979141 -0.22858956 C448.07373094 -0.2247026 454.22756869 -0.22551629 460.38149548 -0.23964691 C490.99458088 -0.30579666 520.05559427 0.29197788 549.84326077 8.13142776 C550.66568264 8.34637894 551.48810452 8.56133011 552.33544827 8.78279495 C590.57800878 19.00015637 627.90500894 37.66488483 661.28076077 58.75642776 C662.18020412 59.32409866 663.07964748 59.89176956 664.0063467 60.47664261 C668.45705065 63.35727064 672.18777871 66.25649138 675.84326077 70.13142776 C677.83100257 71.81668712 679.82843266 73.47968719 681.84326077 75.13142776 C692.59688852 84.11234376 702.34739266 93.9719902 710.84326077 105.13142776 C712.02468655 106.68023636 712.02468655 106.68023636 713.22997952 108.26033401 C745.85837586 152.01409822 760.02006807 206.57487779 759.98370266 260.62836075 C759.98629358 262.04538142 759.98930873 263.46240137 759.99270606 264.87942034 C760.00069477 268.73707865 760.00256104 272.59471828 760.00330353 276.45238388 C760.00516854 280.62796064 760.0127232 284.80352802 760.01943874 288.97909927 C760.03296699 298.09575419 760.03903882 307.21240467 760.0434494 316.32906795 C760.04622249 322.03659644 760.05046186 327.74412326 760.05495358 333.45165062 C760.06714153 349.29548759 760.07744016 365.13932323 760.08082867 380.98316479 C760.08104823 381.99545484 760.0812678 383.0077449 760.08149402 384.05071041 C760.0817123 385.06525334 760.08193057 386.07979626 760.08215547 387.12508291 C760.08259891 389.1805019 760.08304547 391.23592089 760.08349514 393.29133987 C760.08371657 394.31087175 760.083938 395.33040363 760.08416614 396.38083041 C760.08810537 412.86233302 760.10553471 429.34379119 760.12885466 445.82527667 C760.15267703 462.80088112 760.16503552 479.77646338 760.16619658 496.75208479 C760.16710753 506.26110957 760.17271117 515.77007649 760.1910162 525.27908516 C760.20656529 533.38434657 760.211452 541.48953225 760.20327809 549.59480577 C760.19942248 553.71603704 760.20004483 557.83711655 760.21433544 561.95832825 C760.40787473 621.31118378 750.93675007 681.83520679 713.84326077 730.13142776 C712.84552639 731.44627151 712.84552639 731.44627151 711.82763577 732.78767776 C667.74571846 789.41323007 591.82641747 828.23929595 521.50341702 837.62361526 C519.95056353 837.79769839 518.3970849 837.96623267 516.84326077 838.13142776 C516.03613046 838.21792682 515.22900015 838.30442587 514.39741135 838.3935461 C502.81243644 839.45236717 491.20324757 839.29529535 479.58032131 839.30842972 C477.13148816 839.31470423 474.68265594 839.32135189 472.23382473 839.32834244 C464.92283276 839.34745346 457.61184345 839.35814899 450.30083415 839.36707023 C447.53980296 839.37058847 444.77877289 839.37473369 442.01774263 839.37890989 C429.82034541 839.39735462 417.62294813 839.41310384 405.42553902 839.42080784 C402.4512542 839.42271721 399.47696938 839.42463764 396.50268459 839.42659378 C395.76358877 839.42707752 395.02449295 839.42756126 394.26300029 839.42805966 C382.28888121 839.43636113 370.31486197 839.46171048 358.34078648 839.49417446 C346.00960038 839.52733099 333.67846495 839.54526388 321.34723407 839.54845208 C314.43868272 839.55060803 307.53027748 839.55922281 300.62176991 839.58491325 C294.1217731 839.60903176 287.62196718 839.61239245 281.12193203 839.60215187 C278.74688562 839.6016586 276.37182591 839.60791687 273.9968195 839.62170792 C257.09070995 839.71432818 241.05546731 839.50989844 226.84326077 829.13142776 C225.83263577 828.43017776 224.82201077 827.72892776 223.78076077 827.00642776 C208.7017849 813.59340107 202.19519645 792.6032674 199.84326077 773.13142776 C199.73087724 770.39642137 199.65628188 767.68666998 199.64013577 764.95174026 C199.63443569 764.18070969 199.62873562 763.40967911 199.62286282 762.61528397 C199.61346119 760.98656436 199.6068982 759.35782615 199.60302639 757.72908401 C199.5934239 755.2977323 199.56239834 752.86726551 199.53076077 750.43611526 C199.37557798 727.57266292 203.78343374 703.24757281 219.90966702 685.93611526 C236.05860704 670.86377124 255.34840246 668.67371773 276.38281155 668.730793 C278.31299671 668.72503829 280.24317828 668.71795057 282.17335415 668.70964432 C286.304325 668.69462031 290.43516736 668.68874928 294.56616497 668.6901722 C301.11741338 668.69222142 307.66849165 668.67253333 314.21969509 668.64999771 C326.95568286 668.60914842 339.69165685 668.59045943 352.42769527 668.57382584 C368.61627089 668.55143032 384.80480635 668.51760136 400.99331748 668.4666267 C407.48574948 668.44687888 413.97809185 668.43713673 420.47055268 668.43567455 C424.5348338 668.43289407 428.59906664 668.42199882 432.66332722 668.40916443 C434.52550012 668.40494047 436.3876843 668.40398619 438.24985981 668.40683937 C471.27319687 668.45157168 503.60488225 664.46932597 528.84326077 641.13142776 C549.21802897 619.6493352 560.19016428 588.45008953 560.1106863 559.24397659 C560.11521742 558.00235134 560.11974853 556.76072609 560.12441695 555.48147583 C560.13481363 552.06964969 560.13639951 548.65803599 560.1340282 545.24620938 C560.13361723 541.55273668 560.14468577 537.85929451 560.15414333 534.16583633 C560.17069546 526.94172428 560.17625029 519.71764487 560.17736809 512.49351543 C560.17832152 506.614392 560.18244646 500.73527926 560.18876934 494.85615921 C560.20636756 478.15041866 560.21561068 461.44470371 560.21410839 444.73895383 C560.21402848 443.83995949 560.21394857 442.94096514 560.21386623 442.01472855 C560.21378447 441.11462327 560.21370271 440.21451799 560.21361847 439.28713679 C560.21280644 424.71611607 560.23192702 410.14519893 560.26014297 395.57420814 C560.28895418 380.57619974 560.30267868 365.57824171 560.30095541 350.58020496 C560.30029425 342.17475951 560.30566545 333.76942259 560.32731152 325.36400223 C560.34563234 318.20445694 560.34978227 311.04506935 560.33629267 303.88551062 C560.32981685 300.24140961 560.32944701 296.59761016 560.34699917 292.95353889 C560.50168327 258.65524439 553.76053114 229.21336185 531.84326077 202.13142776 C531.08013577 201.07955276 530.31701077 200.02767776 529.53076077 198.94392776 C509.66916079 178.15853244 479.98373079 171.79465084 452.29136693 171.03384483 C448.41108956 170.99022285 444.53138306 170.97576365 440.65092373 170.97320938 C439.15889936 170.96863208 437.66687625 170.96363039 436.17485458 170.95824581 C432.11106386 170.94478818 428.04728141 170.93728269 423.98347437 170.93081915 C419.58760569 170.92276018 415.19175391 170.90908164 410.79589748 170.89610672 C403.19174833 170.87442138 395.5875974 170.85624815 387.98343372 170.84050179 C376.98926683 170.81773041 365.99511872 170.78959792 355.00096784 170.76018251 C337.16105362 170.71259534 319.32113169 170.66930729 301.48120022 170.62874222 C284.15762641 170.589342 266.83405944 170.54790503 249.51049709 170.50374222 C248.44158109 170.50101795 247.37266508 170.49829367 246.27135768 170.49548685 C240.90859426 170.48180662 235.54583094 170.4680865 230.18306768 170.45434654 C185.73647965 170.3405213 141.28987682 170.2336813 96.84326077 170.13142776 C96.84372871 171.56008993 96.84372871 171.56008993 96.8442061 173.01761395 C96.89964571 342.52140356 96.89964571 342.52140356 96.92794704 484.06575394 C96.92822595 485.62989776 96.92850485 487.19404158 96.92878375 488.7581854 C96.93462928 521.59085853 96.94006269 554.42353172 96.94502012 587.256205 C96.94751089 603.74944407 96.95008083 620.24268313 96.95272565 636.73592217 C96.95312415 639.22384604 96.95352038 641.71176991 96.95391653 644.19969378 C96.9600356 682.50465749 96.96785155 720.80961993 96.98058987 759.11458206 C96.98086366 759.9380077 96.98113746 760.76143335 96.98141956 761.60981128 C96.98584423 774.8856473 96.99041148 788.16148328 96.99499765 801.43731924 C97.00820703 839.68154138 97.02036006 877.92576254 97.02554035 916.16998672 C97.02564742 916.95665718 97.02575449 917.74332764 97.02586481 918.55383659 C97.02819648 935.8242857 97.02998612 953.09473482 97.03126273 970.36518404 C97.03178597 977.31451748 97.03238721 984.26385092 97.03301525 991.21318436 C97.03308211 991.97375264 97.03314896 992.73432093 97.03321784 993.51793674 C97.03540972 1018.01254284 97.04394842 1042.50714168 97.05582518 1067.00174485 C97.0677627 1091.68168888 97.07345705 1116.36162585 97.07050874 1141.04157283 C97.0701026 1144.45442089 97.06976783 1147.86726896 97.06947613 1151.28011703 C97.06938649 1152.28361379 97.06938649 1152.28361379 97.06929503 1153.30738321 C97.06848843 1164.53052115 97.07561122 1175.75364568 97.08485585 1186.97677979 C97.09235365 1196.74573328 97.09258943 1206.51466952 97.08692439 1216.2836242 C97.08390415 1221.85009766 97.08403755 1227.4165213 97.09302713 1232.98298943 C97.10115209 1238.05263906 97.09996989 1243.12220025 97.09154072 1248.19184861 C97.09011886 1250.00909341 97.09200986 1251.82634482 97.09773125 1253.64358118 C97.16952265 1278.00151519 94.75678228 1302.20275291 76.75341702 1320.37752151 C53.46499621 1342.86262698 19.9232931 1345.75472562 -10.87158298 1345.31892776 C-35.17627275 1344.73388935 -60.11193402 1340.26492517 -79.15673923 1324.13142776 C-79.94564548 1323.46627151 -80.73455173 1322.80111526 -81.54736423 1322.11580276 C-94.81575355 1309.93054727 -101.28725271 1291.7730258 -102.27287339 1274.0422364 C-102.46148822 1268.07356362 -102.42578141 1262.10254176 -102.41121483 1256.13163567 C-102.41360676 1254.09484693 -102.41687329 1252.05805906 -102.42093143 1250.02127296 C-102.42954676 1244.42182892 -102.42572687 1238.82245197 -102.4198757 1233.22300691 C-102.41570504 1227.13194714 -102.42310758 1221.04089961 -102.42902821 1214.94984281 C-102.43779499 1204.27332276 -102.43916918 1193.59682444 -102.43552494 1182.92030334 C-102.43164664 1171.46648862 -102.43210695 1160.01268631 -102.43783474 1148.55887222 C-102.43819357 1147.83490889 -102.43855239 1147.11094555 -102.43892209 1146.36504393 C-102.44039704 1143.4163389 -102.44190144 1140.46763389 -102.44344356 1137.51892889 C-102.45907479 1107.59473901 -102.46175786 1077.67055765 -102.45928749 1047.74636441 C-102.45894904 1043.61210128 -102.45862694 1039.47783814 -102.45832181 1035.343575 C-102.45826077 1034.52238316 -102.45819972 1033.70119133 -102.45813683 1032.85511489 C-102.45686456 1014.65072665 -102.45946703 996.44633958 -102.46284788 978.24195168 C-102.46361862 974.08430595 -102.46436335 969.92666021 -102.46511289 965.76901447 C-102.46541458 964.10034884 -102.46571647 962.4316832 -102.46601853 960.76301757 C-102.46616821 959.93588288 -102.46631789 959.10874819 -102.46647211 958.25654881 C-102.46677564 956.58346957 -102.46708032 954.91039033 -102.46738615 953.23731109 C-102.47605937 905.76338039 -102.48070305 858.28945073 -102.47643852 810.81551933 C-102.47636047 809.93646233 -102.47628241 809.05740534 -102.47620199 808.15171025 C-102.4753292 798.34947714 -102.47439994 788.54724403 -102.47345135 778.74501093 C-102.47336584 777.86002875 -102.47328033 776.97504657 -102.47319223 776.06324675 C-102.47248148 768.71025118 -102.47248148 768.71025118 -102.47215001 765.32644191 C-102.46661579 708.73587739 -102.47415183 652.14532918 -102.49292088 595.55476761 C-102.49764322 581.29876903 -102.5023238 567.04277044 -102.50675774 552.78677177 C-102.50703106 551.90893254 -102.50730438 551.03109331 -102.50758599 550.12665289 C-102.51596 523.0621148 -102.52063721 495.99757808 -102.5214653 468.93303871 C-102.52149167 468.08306087 -102.52151803 467.23308303 -102.5215452 466.35734828 C-102.52208604 447.69635573 -102.5217134 429.03536329 -102.52050549 410.37437078 C-102.52007987 403.69671961 -102.51971474 397.01906844 -102.51937604 390.34141726 C-102.51929074 388.68023188 -102.51920181 387.0190465 -102.51910923 385.35786111 C-102.51766168 358.9106389 -102.52477888 332.46342778 -102.53611319 306.01620823 C-102.54777463 278.62821497 -102.5483145 251.2402415 -102.53626976 223.85224815 C-102.53501799 220.90749676 -102.5338145 217.96274535 -102.53264904 215.01799393 C-102.53235875 214.29532365 -102.53206845 213.57265337 -102.53176936 212.828084 C-102.52745384 201.41224022 -102.53315754 189.99642468 -102.54308923 178.58058534 C-102.5526562 167.33923385 -102.55116145 156.09792528 -102.53888301 144.85657268 C-102.53262701 138.84999726 -102.53102484 132.84352361 -102.54274634 126.83695407 C-102.5533336 121.36106925 -102.54984931 115.8853718 -102.53564182 110.40949682 C-102.53293715 108.45196648 -102.53513451 106.4944208 -102.54314896 104.536905 C-102.64645561 77.43115739 -100.19883679 47.87488495 -80.45361423 27.33455276 C-59.43347133 7.17237488 -28.45153134 -0.06388784 0 0 Z " fill="#FFFFFF" transform="translate(1218.1567392349243,25.868572235107422)"/>
<path d="M0 0 C8.8169964 6.9536036 17.06078697 14.37681849 24.1875 23.0625 C25.18732989 24.25014323 26.18734829 25.43762777 27.1875 26.625 C42.6407653 45.13034192 56.27686141 64.76119198 54.1875 90.0625 C51.45472423 111.50102002 41.94559296 126.3870014 27.328125 141.7109375 C23.76593382 145.46388381 20.53104486 149.44756444 17.296875 153.484375 C15.16764854 156.0867629 12.95300643 158.57825502 10.6875 161.0625 C7.57291332 164.47989372 4.5956338 167.9677235 1.6875 171.5625 C-1.92282442 176.02526213 -5.69677929 180.28969533 -9.5625 184.53125 C-11.89112053 187.1509481 -14.10812947 189.8376531 -16.3125 192.5625 C-19.92399134 197.02670457 -23.69910694 201.29252114 -27.56640625 205.53515625 C-29.87437598 208.13212393 -32.06805863 210.79654013 -34.25 213.5 C-38.10958603 218.27246203 -42.18449991 222.79359109 -46.33984375 227.30859375 C-49.55959519 230.89457284 -52.57155176 234.62951492 -55.59765625 238.37890625 C-57.76882827 241.00958557 -60.01491357 243.54192424 -62.3125 246.0625 C-65.42708668 249.47989372 -68.4043662 252.9677235 -71.3125 256.5625 C-74.92282442 261.02526213 -78.69677929 265.28969533 -82.5625 269.53125 C-84.89112053 272.1509481 -87.10812947 274.8376531 -89.3125 277.5625 C-92.92399134 282.02670457 -96.69910694 286.29252114 -100.56640625 290.53515625 C-102.87437598 293.13212393 -105.06805863 295.79654013 -107.25 298.5 C-111.10958603 303.27246203 -115.18449991 307.79359109 -119.33984375 312.30859375 C-122.55959519 315.89457284 -125.57155176 319.62951492 -128.59765625 323.37890625 C-130.76882827 326.00958557 -133.01491357 328.54192424 -135.3125 331.0625 C-138.42708668 334.47989372 -141.4043662 337.9677235 -144.3125 341.5625 C-147.92399134 346.02670457 -151.69910694 350.29252114 -155.56640625 354.53515625 C-157.87437598 357.13212393 -160.06805863 359.79654013 -162.25 362.5 C-166.10958603 367.27246203 -170.18449991 371.79359109 -174.33984375 376.30859375 C-177.55959519 379.89457284 -180.57155176 383.62951492 -183.59765625 387.37890625 C-185.76882827 390.00958557 -188.01491357 392.54192424 -190.3125 395.0625 C-194.13420863 399.25979034 -197.72724189 403.59960231 -201.296875 408.01171875 C-204.24174949 411.58306499 -207.26966976 415.07464487 -210.3125 418.5625 C-214.04665168 422.84456292 -217.73709104 427.14581835 -221.3125 431.5625 C-226.44112131 437.89123745 -231.80524671 444.00955834 -237.15283203 450.15283203 C-243.2732846 457.19522391 -249.37280337 464.25252801 -255.25 471.5 C-260.40436792 477.84526881 -265.78612765 483.98759448 -271.15283203 490.15283203 C-277.2732846 497.19522391 -283.37280337 504.25252801 -289.25 511.5 C-294.40436792 517.84526881 -299.78612765 523.98759448 -305.15283203 530.15283203 C-311.2732846 537.19522391 -317.37280337 544.25252801 -323.25 551.5 C-328.40436792 557.84526881 -333.78612765 563.98759448 -339.15283203 570.15283203 C-345.2732846 577.19522391 -351.37280337 584.25252801 -357.25 591.5 C-362.40701086 597.84852239 -367.7919436 603.99343216 -373.16162109 610.16162109 C-380.06131733 618.10616928 -386.87781273 626.12255266 -393.6640625 634.1640625 C-397.06590609 638.1915325 -400.49867995 642.19159219 -403.9375 646.1875 C-407.43069482 650.2487481 -410.87698551 654.33768779 -414.25 658.5 C-419.40436792 664.84526881 -424.78612765 670.98759448 -430.15283203 677.15283203 C-436.2732846 684.19522391 -442.37280337 691.25252801 -448.25 698.5 C-453.40436792 704.84526881 -458.78612765 710.98759448 -464.15283203 717.15283203 C-470.2732846 724.19522391 -476.37280337 731.25252801 -482.25 738.5 C-487.40436792 744.84526881 -492.78612765 750.98759448 -498.15283203 757.15283203 C-504.2732846 764.19522391 -510.37280337 771.25252801 -516.25 778.5 C-521.40436792 784.84526881 -526.78612765 790.98759448 -532.15283203 797.15283203 C-538.2732846 804.19522391 -544.37280337 811.25252801 -550.25 818.5 C-555.40436792 824.84526881 -560.78612765 830.98759448 -566.15283203 837.15283203 C-572.2732846 844.19522391 -578.37280337 851.25252801 -584.25 858.5 C-589.40701086 864.84852239 -594.7919436 870.99343216 -600.16162109 877.16162109 C-606.76758098 884.76795113 -613.29812716 892.44019611 -619.8125 900.125 C-620.47983154 900.91124756 -620.47983154 900.91124756 -621.16064453 901.71337891 C-622.38328481 903.15857245 -623.59808135 904.61039086 -624.8125 906.0625 C-625.51118366 906.82150876 -626.20986731 907.58051751 -626.9297232 908.36252654 C-629.17186199 911.57783875 -629.31232457 913.21817139 -629.31192875 917.10191917 C-629.32632499 918.93175899 -629.32632499 918.93175899 -629.34101206 920.79856527 C-629.33145676 922.14910911 -629.32153787 923.49965041 -629.31129456 924.85018921 C-629.31502161 926.28749968 -629.32051101 927.72480648 -629.32761139 929.16210425 C-629.34207443 933.11253506 -629.33168461 937.06257198 -629.31732833 941.01298881 C-629.3062226 945.27364421 -629.31820455 949.53424044 -629.32751465 953.79489136 C-629.34061486 961.18037924 -629.33943376 968.56575398 -629.32892036 975.95124435 C-629.31398059 986.64576571 -629.32389662 997.34015436 -629.34043955 1008.03466816 C-629.36691417 1025.40706749 -629.37775914 1042.77943707 -629.37670898 1060.15185547 C-629.37665066 1061.19180847 -629.37659234 1062.23176148 -629.37653225 1063.30322821 C-629.37626644 1067.51613126 -629.37594917 1071.72903431 -629.37556899 1075.94193735 C-629.37460413 1087.51776984 -629.37592848 1099.09360141 -629.37866211 1110.66943359 C-629.37902195 1112.22291427 -629.37902195 1112.22291427 -629.37938906 1113.8077784 C-629.38380234 1131.10286351 -629.40006488 1148.39792108 -629.4238829 1165.69298995 C-629.43792623 1176.35333536 -629.44085798 1187.01357579 -629.42926001 1197.67392476 C-629.4219128 1204.98829317 -629.42503129 1212.30260887 -629.43621845 1219.61697225 C-629.44226588 1223.83147233 -629.44345003 1228.04582468 -629.43134117 1232.26031494 C-629.42029522 1236.12837455 -629.42331053 1239.99617376 -629.43688463 1243.86422296 C-629.44051288 1245.90582229 -629.42949578 1247.94743202 -629.41773134 1249.98900068 C-629.52783324 1269.61542833 -634.9225008 1289.5411372 -648.8125 1304.0625 C-673.13844628 1326.59003002 -707.93873611 1329.89643998 -739.63037109 1328.921875 C-766.47154782 1327.74504517 -793.65888822 1321.6707128 -813.0234375 1301.79296875 C-825.05482992 1287.89463613 -829.99010291 1269.52512039 -829.9401505 1251.43257904 C-829.94262667 1250.15844382 -829.94262667 1250.15844382 -829.94515286 1248.85856849 C-829.94947497 1246.00542698 -829.94667742 1243.15233716 -829.94392776 1240.29919434 C-829.94557753 1238.22689068 -829.94766386 1236.15458733 -829.95014787 1234.08228451 C-829.95572261 1228.36098491 -829.95504062 1222.63970026 -829.95337028 1216.91839881 C-829.95264031 1210.70402481 -829.95765946 1204.48965506 -829.9619453 1198.27528286 C-829.96864944 1187.37470782 -829.97162318 1176.47413761 -829.97208023 1165.57356071 C-829.97258253 1153.87577094 -829.97522851 1142.17798463 -829.98048782 1130.480196 C-829.98081796 1129.74164412 -829.98114809 1129.00309224 -829.98148823 1128.24216001 C-829.98283822 1125.23419015 -829.98420088 1122.22622031 -829.98558033 1119.21825047 C-830.0018855 1083.60059689 -830.00826926 1047.98294398 -830.0130282 1012.36528731 C-830.01541114 994.63075778 -830.01911455 976.89622864 -830.0230653 959.16169941 C-830.03572995 902.27956123 -830.04651387 845.39742307 -830.04990576 788.51528351 C-830.050068 785.79644905 -830.05023356 783.07761459 -830.05040014 780.35878012 C-830.05073394 774.90608579 -830.05106442 769.45339147 -830.0513947 764.00069714 C-830.0517816 757.61687365 -830.05217121 751.23305017 -830.05256577 744.84922668 C-830.05267818 743.02212243 -830.0527896 741.19501818 -830.05290002 739.36791393 C-830.05644959 680.68546378 -830.07152845 622.00302586 -830.09483776 563.32058037 C-830.11157947 521.15536082 -830.12705446 478.99014357 -830.13157272 436.82492065 C-830.13166621 435.957766 -830.1317597 435.09061134 -830.13185601 434.19717927 C-830.13387507 415.16086501 -830.13503111 396.12455079 -830.1353846 377.08823643 C-830.13552077 370.27660636 -830.13572977 363.4649763 -830.13597785 356.65334623 C-830.13603941 354.95877466 -830.13609773 353.26420309 -830.1361528 351.56963152 C-830.13707258 324.56852339 -830.14704033 297.56742803 -830.16161029 270.5663241 C-830.17622741 243.36897581 -830.1812674 216.17164321 -830.17319075 188.97429169 C-830.17207539 185.21486531 -830.17106472 181.45543892 -830.17011642 177.6960125 C-830.16992646 176.95907161 -830.16973649 176.22213073 -830.16954076 175.4628583 C-830.1668086 163.80064206 -830.17414433 152.13845483 -830.18568979 140.4762449 C-830.19683661 129.00467723 -830.19700537 117.53316436 -830.18631961 106.06159339 C-830.18091436 99.92675888 -830.18026009 93.79202517 -830.19282833 87.65719891 C-830.20417303 82.07307027 -830.20163635 76.48912438 -830.18816125 70.90500205 C-830.1857313 68.90042435 -830.18829694 66.89583255 -830.19655773 64.89127041 C-830.2866346 41.4894901 -826.34772212 20.09386047 -809.75 2.375 C-788.989751 -17.5332552 -759.04364157 -21.16675049 -731.5625 -21.1875 C-730.35997086 -21.18851212 -730.35997086 -21.18851212 -729.13314819 -21.18954468 C-701.9298977 -21.15321256 -672.98756599 -17.77864088 -651.8125 1.0625 C-650.89404297 1.85914063 -650.89404297 1.85914063 -649.95703125 2.671875 C-636.697637 14.96535311 -630.27104223 33.35386109 -629.53447402 51.10658157 C-629.38178827 57.10010228 -629.39941765 63.0931196 -629.41377258 69.08811951 C-629.40832637 71.40683207 -629.40157201 73.72554185 -629.39363068 76.04424721 C-629.37567004 82.38386937 -629.37615452 88.723374 -629.37976015 95.06301558 C-629.38179338 101.20718305 -629.36681107 107.35132197 -629.35367843 113.49547191 C-629.32731573 126.05463743 -629.31473046 138.61378089 -629.31011391 151.17297173 C-629.30550031 163.60046261 -629.29469164 176.02792293 -629.27568626 188.45540047 C-629.27450614 189.22933722 -629.27332601 190.00327398 -629.27211012 190.80066336 C-629.26608434 194.73141423 -629.25994863 198.66216491 -629.25377061 202.59291554 C-629.21025781 230.40348836 -629.18051869 258.21406044 -629.15893555 286.0246582 C-629.13794174 313.03508603 -629.11067425 340.04549567 -629.07495117 367.0559082 C-629.07330196 368.30571475 -629.07330196 368.30571475 -629.07161942 369.58076991 C-629.06057068 377.94847632 -629.0493948 386.31618257 -629.0381258 394.68388869 C-629.01517431 411.72847225 -628.99307116 428.77305687 -628.97148132 445.81764221 C-628.9704877 446.60125117 -628.96949409 447.38486013 -628.96847036 448.19221481 C-628.90226355 500.48229513 -628.85589145 552.77239637 -628.8125 605.0625 C-628.20151459 604.31366547 -627.59052917 603.56483093 -626.96102905 602.79330444 C-625.75321274 601.31466415 -625.75321274 601.31466415 -624.52099609 599.80615234 C-623.72438568 598.83044281 -622.92777527 597.85473328 -622.10702515 596.84945679 C-619.27503854 593.40969309 -616.37361986 590.03828612 -613.4375 586.6875 C-609.34092966 581.98642916 -605.26929522 577.2673429 -601.25 572.5 C-597.45835511 568.00267638 -593.64521698 563.52488201 -589.8125 559.0625 C-585.96111062 554.5775648 -582.126169 550.07955464 -578.3125 545.5625 C-573.997248 540.45135138 -569.65083342 535.36780858 -565.29296875 530.29296875 C-561.94957702 526.39666469 -558.62457518 522.48544783 -555.3125 518.5625 C-550.997248 513.45135138 -546.65083342 508.36780858 -542.29296875 503.29296875 C-538.94957702 499.39666469 -535.62457518 495.48544783 -532.3125 491.5625 C-527.997248 486.45135138 -523.65083342 481.36780858 -519.29296875 476.29296875 C-515.94957702 472.39666469 -512.62457518 468.48544783 -509.3125 464.5625 C-504.997248 459.45135138 -500.65083342 454.36780858 -496.29296875 449.29296875 C-492.94957702 445.39666469 -489.62457518 441.48544783 -486.3125 437.5625 C-481.997248 432.45135138 -477.65083342 427.36780858 -473.29296875 422.29296875 C-469.94957702 418.39666469 -466.62457518 414.48544783 -463.3125 410.5625 C-458.997248 405.45135138 -454.65083342 400.36780858 -450.29296875 395.29296875 C-446.94957702 391.39666469 -443.62457518 387.48544783 -440.3125 383.5625 C-435.997248 378.45135138 -431.65083342 373.36780858 -427.29296875 368.29296875 C-423.9495766 364.39666421 -420.6246296 360.48540228 -417.3125 356.5625 C-413.51726273 352.06840947 -409.7045907 347.58985733 -405.875 343.125 C-405.37830811 342.54580811 -404.88161621 341.96661621 -404.36987305 341.36987305 C-401.81739582 338.39493959 -399.26180018 335.4227292 -396.703125 332.453125 C-392.1141409 327.12129366 -387.55372166 321.77920329 -383.125 316.3125 C-379.56982096 311.93098205 -375.84480463 307.74539319 -372.046875 303.57421875 C-369.81115467 301.06098768 -367.67872318 298.48938521 -365.5625 295.875 C-361.40165231 290.73555572 -357.09515511 285.73923848 -352.75317383 280.75341797 C-349.22090005 276.69466743 -345.71817144 272.61364718 -342.25 268.5 C-338.45835511 264.00267638 -334.64521698 259.52488201 -330.8125 255.0625 C-326.96111062 250.5775648 -323.126169 246.07955464 -319.3125 241.5625 C-314.997248 236.45135138 -310.65083342 231.36780858 -306.29296875 226.29296875 C-302.94957702 222.39666469 -299.62457518 218.48544783 -296.3125 214.5625 C-291.997248 209.45135138 -287.65083342 204.36780858 -283.29296875 199.29296875 C-279.94957702 195.39666469 -276.62457518 191.48544783 -273.3125 187.5625 C-268.997248 182.45135138 -264.65083342 177.36780858 -260.29296875 172.29296875 C-256.94957702 168.39666469 -253.62457518 164.48544783 -250.3125 160.5625 C-245.997248 155.45135138 -241.65083342 150.36780858 -237.29296875 145.29296875 C-233.94957702 141.39666469 -230.62457518 137.48544783 -227.3125 133.5625 C-222.997248 128.45135138 -218.65083342 123.36780858 -214.29296875 118.29296875 C-210.94957702 114.39666469 -207.62457518 110.48544783 -204.3125 106.5625 C-199.997248 101.45135138 -195.65083342 96.36780858 -191.29296875 91.29296875 C-187.94957702 87.39666469 -184.62457518 83.48544783 -181.3125 79.5625 C-176.997248 74.45135138 -172.65083342 69.36780858 -168.29296875 64.29296875 C-164.94957702 60.39666469 -161.62457518 56.48544783 -158.3125 52.5625 C-153.997248 47.45135138 -149.65083342 42.36780858 -145.29296875 37.29296875 C-141.94957641 33.39666399 -138.62465266 29.48538304 -135.3125 25.5625 C-130.40767953 19.75514276 -125.47849178 13.96933807 -120.51171875 8.21484375 C-118.9608648 6.41517264 -117.44579804 4.60624556 -115.95703125 2.75390625 C-85.56412714 -34.54306497 -34.47711496 -26.40646486 0 0 Z " fill="#FFFFFF" transform="translate(851.8125,38.9375)"/>
<path d="M0 0 C9.93254965 8.50561998 16.52724325 19.41555828 23.6640625 30.23828125 C27.01704547 35.31923083 30.42958077 40.35638737 33.875 45.375 C34.67296997 46.53793579 34.67296997 46.53793579 35.48706055 47.72436523 C36.55889072 49.28556216 37.63107376 50.84651688 38.70361328 52.40722656 C41.41203442 56.35108228 44.11178368 60.3008661 46.8125 64.25 C47.89319416 65.82945104 48.97392334 67.40887811 50.0546875 68.98828125 C52.24788644 72.19367513 54.44053718 75.3994431 56.6328125 78.60546875 C61.68462747 85.99255668 66.73972009 93.37728892 71.8125 100.75 C77.44198224 108.93181487 83.04946291 117.12861487 88.65527344 125.32666016 C91.37359401 129.30162332 94.09309969 133.27577548 96.8125 137.25 C97.89583917 138.83332934 98.9791725 140.41666268 100.0625 142 C100.866875 143.175625 100.866875 143.175625 101.6875 144.375 C236.5625 341.5 236.5625 341.5 238.18798828 343.87573242 C239.26967066 345.45664032 240.35137634 347.03753229 241.43310547 348.6184082 C244.16689101 352.6137193 246.90025202 356.60931967 249.6328125 360.60546875 C254.68462747 367.99255668 259.73972009 375.37728892 264.8125 382.75 C270.44198224 390.93181487 276.04946291 399.12861487 281.65527344 407.32666016 C284.37359401 411.30162332 287.09309969 415.27577548 289.8125 419.25 C290.89583917 420.83332934 291.9791725 422.41666268 293.0625 424 C293.866875 425.175625 293.866875 425.175625 294.6875 426.375 C312.5625 452.5 312.5625 452.5 314.18896484 454.87719727 C315.26734528 456.45325433 316.34579529 458.02926381 317.42431641 459.60522461 C320.20901471 463.67448815 322.9923318 467.74468637 325.7734375 471.81640625 C326.62494385 473.06212402 326.62494385 473.06212402 327.49365234 474.33300781 C328.61248445 475.97077934 329.73002297 477.60943542 330.84619141 479.24902344 C333.55696897 483.22327787 336.32431107 487.13341674 339.1875 491 C353.21172853 511.09907999 358.38356367 537.43191264 354.69921875 561.4765625 C350.05978841 585.61807161 333.36731629 606.92958733 314.3125 621.75 C313.69818115 622.38969727 313.0838623 623.02939453 312.45092773 623.68847656 C308.91446995 627.09775268 304.6685418 629.16776973 300.375 631.5 C299.40731689 632.0264209 298.43963379 632.5528418 297.44262695 633.09521484 C278.56270924 643.12187239 257.33051649 651.7070484 235.6484375 646.9453125 C222.06650511 642.15363319 211.50582353 632.54801458 201.3125 622.75 C200.50554687 622.04101562 199.69859375 621.33203125 198.8671875 620.6015625 C190.3388881 612.80506437 184.42078797 603.00003672 178.08740234 593.42236328 C175.66334296 589.77260345 173.18062146 586.165266 170.6875 582.5625 C169.80949096 581.28803925 168.93188962 580.01329753 168.0546875 578.73828125 C167.61350586 578.09713379 167.17232422 577.45598633 166.71777344 576.79541016 C164.07659424 572.95110868 161.44505142 569.10021239 158.8125 565.25 C154.82015008 559.41137855 150.82208729 553.5767979 146.8125 547.75 C142.24583095 541.11364176 137.6954961 534.4662126 133.1484375 527.81640625 C129.7101872 522.789391 126.26500393 517.76723525 122.8125 512.75 C118.80291262 506.92320197 114.80489097 501.08859348 110.8125 495.25 C104.99325662 486.74027678 99.15675131 478.24256138 93.3125 469.75 C86.91130921 460.4481232 80.52246163 451.13799056 74.14892578 441.81713867 C70.71052782 436.78986892 67.26517026 431.76747695 63.8125 426.75 C59.80291262 420.92320197 55.80489097 415.08859348 51.8125 409.25 C45.99325662 400.74027678 40.15675131 392.24256138 34.3125 383.75 C27.91130921 374.4481232 21.52246163 365.13799056 15.14892578 355.81713867 C11.71052782 350.78986892 8.26517026 345.76747695 4.8125 340.75 C0.24583095 334.11364176 -4.3045039 327.4662126 -8.8515625 320.81640625 C-12.2898128 315.789391 -15.73499607 310.76723525 -19.1875 305.75 C-23.19708738 299.92320197 -27.19510903 294.08859348 -31.1875 288.25 C-37.00674338 279.74027678 -42.84324869 271.24256138 -48.6875 262.75 C-55.08869079 253.4481232 -61.47753837 244.13799056 -67.85107422 234.81713867 C-71.28947218 229.78986892 -74.73482974 224.76747695 -78.1875 219.75 C-82.19708738 213.92320197 -86.19510903 208.08859348 -90.1875 202.25 C-94.22244599 196.34952956 -98.26205227 190.45234121 -102.3125 184.5625 C-102.98261108 183.58772705 -102.98261108 183.58772705 -103.66625977 182.59326172 C-105.90546317 179.33705122 -108.14771889 176.08299652 -110.39453125 172.83203125 C-112.68588226 169.51455526 -114.96815216 166.19100631 -117.24316406 162.86230469 C-118.2407245 161.40339784 -119.24019496 159.94579584 -120.24121094 158.48925781 C-134.67095444 137.44993186 -143.10034541 118.08363519 -143.0625 92.1875 C-143.06162384 91.52836609 -143.06074768 90.86923218 -143.05984497 90.19012451 C-142.94233592 63.31917946 -134.26992568 41.00815867 -115.125 21.875 C-113.20715663 20.00524934 -111.27670527 18.15089303 -109.33203125 16.30908203 C-108.01885369 15.06413668 -106.72481467 13.79901398 -105.4375 12.52734375 C-78.5704231 -12.89215357 -30.22210139 -23.49685355 0 0 Z " fill="#FFFFFF" transform="translate(620.6875,694.25)"/>
</svg>
